<?xml version="1.0" standalone="no"?>
<!DOCTYPE svg PUBLIC "-//W3C//DTD SVG 20010904//EN"
 "http://www.w3.org/TR/2001/REC-SVG-20010904/DTD/svg10.dtd">
<svg version="1.0" xmlns="http://www.w3.org/2000/svg"
 width="1000.000000pt" height="1000.000000pt" viewBox="0 0 1000.000000 1000.000000"
 preserveAspectRatio="xMidYMid meet">
<metadata>
Created by potrace 1.11, written by Peter Selinger 2001-2013
</metadata>
<g transform="translate(0.000000,1000.000000) scale(0.100000,-0.100000)"
fill="#000000" stroke="none">
<path d="M0 5000 l0 -5000 5000 0 5000 0 0 5000 0 5000 -5000 0 -5000 0 0
-5000z m2242 2018 l3 -2143 1993 2143 1994 2142 665 0 665 0 -99 -104 c-54
-57 -879 -925 -1833 -1930 -954 -1004 -1735 -1830 -1735 -1835 0 -5 851 -974
1890 -2152 1040 -1178 1903 -2157 1918 -2175 l28 -34 -713 1 -713 1 -1624
1829 -1624 1830 -23 -23 c-13 -13 -196 -207 -408 -433 l-385 -410 0 -1397 -1
-1398 -550 0 -550 0 0 4115 0 4115 550 0 550 0 2 -2142z"/>
</g>
</svg>
